<?xml version="1.0" encoding="UTF-8"?>
<svg width="67px" height="53px" viewBox="0 0 67 53" version="1.1" xmlns="http://www.w3.org/2000/svg" xmlns:xlink="http://www.w3.org/1999/xlink">
    <!-- Generator: Sketch 46 (44423) - http://www.bohemiancoding.com/sketch -->
    <title>garden</title>
    <desc>Created with Sketch.</desc>
    <defs></defs>
    <g id="Page-1" stroke="none" stroke-width="1" fill="none" fill-rule="evenodd">
        <g id="Desktop-HD-Detail-A" transform="translate(-483.000000, -1598.000000)" fill-rule="nonzero" fill="#000000">
            <g id="wateroverlastscore" transform="translate(192.000000, 1444.000000)">
                <g id="graphics" transform="translate(0.000000, 147.000000)">
                    <g id="groenfactor" transform="translate(270.000000, 7.000000)">
                        <g id="garden" transform="translate(21.000000, 0.000000)">
                            <path d="M65.8645354,50.7857493 L51.5717098,50.7857493 L51.5717098,43.9878553 C54.6928307,43.5667933 57.4590616,41.6116375 59.0675819,38.6475342 C61.2046422,38.1575639 63.1460681,36.9165598 64.5822469,35.1106395 C66.1413025,33.1501023 67,30.6444683 67,28.0552256 C67,24.116432 64.9892188,20.4708592 61.8254378,18.5772614 C61.4958037,12.0089302 56.4476515,6.77164325 50.2994975,6.77164325 C48.3642219,6.77164325 46.4493605,7.29993957 44.762063,8.29943685 C44.2370562,8.61037697 44.0627518,9.28922134 44.3727571,9.81568012 C44.6828932,10.3424014 45.3598274,10.5171001 45.8845725,10.20616 C47.2321597,9.40787473 48.7587622,8.98602519 50.2994975,8.98602519 C55.4374191,8.98602519 59.6251726,13.5868627 59.6348562,19.2420616 C59.6356413,19.6587923 59.8694866,20.0398219 60.2402105,20.2280398 C63.0055254,21.6317986 64.7921449,24.704055 64.7921449,28.0550944 C64.7921449,32.2843526 61.9366681,35.9460696 58.1498669,36.5725437 C57.7952387,36.6313454 57.4913838,36.8593331 57.3352689,37.1841862 C56.1509938,39.6475565 54.0111855,41.3127727 51.5717098,41.7463038 L51.5717098,31.948868 L57.004457,26.9379937 C57.4531729,26.5240194 57.4824854,25.8236494 57.0697557,25.3735804 C56.6568952,24.9235113 55.9587618,24.8939792 55.5100459,25.3080847 L51.5717098,28.9405321 L51.5717098,21.5493712 C51.5717098,20.93786 51.0774549,20.4421146 50.4677823,20.4421146 C49.8581097,20.4421146 49.3638548,20.93786 49.3638548,21.5493712 L49.3638548,34.9503787 L45.4255187,31.3179312 C44.9768028,30.9038257 44.2784077,30.9333578 43.8658089,31.3834269 C43.4530792,31.833496 43.4823916,32.5338659 43.9311076,32.9478403 L49.3639856,37.9587145 L49.3639856,41.7981491 C46.760936,41.4617457 44.4652745,39.7341839 43.2334976,37.1201343 C43.0862811,36.8076192 42.8019242,36.581994 42.464962,36.5103294 C38.8019535,35.7297634 36.1434196,32.1739682 36.1434196,28.0550944 C36.1434196,24.8073517 37.7762797,21.8679241 40.404716,20.384363 C40.7564653,20.1857761 40.9721211,19.8105216 40.9671485,19.4058663 C40.9668868,19.3751529 40.9658399,19.3447021 40.964793,19.3143824 C40.9641387,19.2967944 40.9634844,19.2793377 40.9634844,19.2618809 C40.9634844,16.9553589 41.6421198,14.7760217 42.9259787,12.9597323 C43.278644,12.4608369 43.1612634,11.7696546 42.6639987,11.4161883 C42.1666032,11.0623282 41.4774991,11.1803253 41.1250955,11.6789583 C39.6624831,13.7480423 38.8506331,16.199206 38.7637426,18.7944864 C35.7699477,20.752661 33.9358263,24.2404668 33.9358263,28.0552256 C33.9358263,33.0171422 37.0764452,37.3393281 41.4782842,38.5479126 C43.1350915,41.6776581 46.0655507,43.7030347 49.3642473,44.0272314 L49.3642473,50.7857493 L48.6650671,50.7857493 C48.5024092,47.8880604 46.5276142,45.3672009 43.7776098,44.5160204 C42.9147248,42.6746616 41.2386812,41.3395485 39.267812,40.9066736 C38.6216296,37.9606833 35.9776211,35.7638894 32.8965432,35.7638894 C30.520665,35.7638894 28.3663313,37.0446634 27.2179117,39.0832966 C24.9562735,39.1695303 22.9228537,40.3813961 21.7548052,42.2588497 C21.0268359,40.2501424 19.1620934,38.7875819 16.9788399,38.6303399 L16.9788399,35.7192631 C19.9588946,35.3037137 22.5976688,33.4341354 24.1394509,30.6058797 C26.187527,30.1312661 28.0475585,28.9394821 29.424589,27.2079827 C30.9239728,25.3227852 31.7496938,22.9133601 31.7496938,20.4237391 C31.7496938,16.6452063 29.8248871,13.1469002 26.7943207,11.3220794 C26.4654717,5.02045577 21.6170105,0 15.7134322,0 C13.4489151,0 11.2707651,0.732527155 9.41426677,2.11869796 C8.9253771,2.48371463 8.82396128,3.17752193 9.18788049,3.66801718 C9.5517997,4.15838117 10.2433901,4.26010282 10.7325415,3.89508616 C12.2049683,2.79544228 13.9273361,2.21438194 15.7134322,2.21438194 C20.6063855,2.21438194 24.5947098,6.59799454 24.6040008,11.9862233 C24.6047859,12.402954 24.8386312,12.7839836 25.2093551,12.9722014 C27.8411937,14.3082333 29.5415771,17.233223 29.5415771,20.4237391 C29.5415771,24.4499477 26.82468,27.9356535 23.2217359,28.5316767 C22.8672385,28.5904784 22.5632528,28.8184662 22.4071379,29.1433192 C21.2889467,31.4691356 19.2764643,33.0478556 16.9785782,33.4757428 L16.9785782,24.1724773 L22.1647868,19.3891971 C22.6135027,18.9752228 22.6426843,18.2748528 22.2300855,17.8247837 C21.8174867,17.3745833 21.1190916,17.3451825 20.6703756,17.7592881 L16.9785782,21.1642727 L16.9785782,14.1954864 C16.9785782,13.5839752 16.4843233,13.0882298 15.8746506,13.0882298 C15.264978,13.0882298 14.7707231,13.5839752 14.7707231,14.1954864 L14.7707231,26.9180432 L11.0790565,23.5130585 C10.6302097,23.0989529 9.93194545,23.128485 9.51934664,23.5785541 C9.10661698,24.0286232 9.13592942,24.7291245 9.58464534,25.1429675 L14.7705922,29.9262478 L14.7705922,33.5275881 C12.3161986,33.1907909 10.1549294,31.5526129 8.99093752,29.08268 C8.84372101,28.7701648 8.55936414,28.5445396 8.22240191,28.4728751 C4.73723098,27.7298476 2.20759334,24.3449447 2.20759334,20.4237391 C2.20759334,17.3312696 3.76154539,14.5329397 6.26317917,13.1209119 C6.61466677,12.9224563 6.8303226,12.5478581 6.82561167,12.143334 C6.82534995,12.1134082 6.82443394,12.0834823 6.82338706,12.0536877 C6.82299449,12.0375435 6.82220933,12.0215306 6.82220933,12.0051238 C6.82220933,10.6356223 7.07385142,9.31127197 7.5700692,8.06895527 C7.71767829,7.69986974 7.88766428,7.33734689 8.07570884,6.99109951 C8.36726295,6.45400918 8.16966568,5.7817275 7.63419017,5.48929415 C7.09871465,5.1965983 6.42832338,5.39492271 6.13690012,5.93201304 C5.90776581,6.35412508 5.70048496,6.79592519 5.52094625,7.24533802 C4.97709575,8.60657061 4.6757272,10.0461617 4.62299097,11.5314291 C1.75573681,13.4171516 0,16.7641222 0,20.4237391 C0,25.1878563 3.01211521,29.339281 7.23598587,30.5092769 C8.82435386,33.4959559 11.6206824,35.4337862 14.7707231,35.7581142 L14.7707231,38.9251358 C13.5626317,39.3485604 12.5287138,40.1856968 11.8635569,41.3101476 C9.18277699,41.4630583 7.01666598,43.4489274 6.59686993,46.0679647 C4.61971949,46.9486773 3.149779,48.6954022 2.60854569,50.7854868 L1.10392753,50.7854868 C0.494254894,50.7854868 0,51.2812322 0,51.8927434 C0,52.5042546 0.494254894,53 1.10392753,53 L3.52220406,53 L28.4422296,53 L47.5273779,53 L65.8645354,53 C66.4742081,53 66.968463,52.5042546 66.968463,51.8927434 C66.968463,51.2812322 66.4740772,50.7857493 65.8645354,50.7857493 Z M4.92383609,50.7857493 C5.45041318,49.4397421 6.55813563,48.3675303 7.96932037,47.909061 C8.41332536,47.7648131 8.71888141,47.3562202 8.73262162,46.8884318 C8.78823674,44.9969341 10.3099974,43.5152106 12.1971168,43.5152106 C12.2727534,43.5152106 12.3554563,43.5187544 12.4571339,43.5262359 C12.9300587,43.5604931 13.3724934,43.2895854 13.5560888,42.8509354 C14.0706268,41.6231878 15.2607905,40.8297589 16.5882254,40.8297589 C18.2927963,40.8297589 19.7317232,42.1635595 19.8641526,43.8663143 C19.906551,44.4098361 20.3369466,44.8416609 20.8789651,44.8841871 C21.1799411,44.9076816 21.4709717,44.9739647 21.746561,45.0750301 C21.7477388,45.0754239 21.7487856,45.0760801 21.7499634,45.0764739 C21.8011293,45.0953744 21.8515101,45.1157188 21.9014982,45.1369819 C21.9122287,45.1415757 21.92309,45.1461696 21.9338204,45.1508948 C21.9805371,45.1712391 22.0267304,45.1926334 22.0721385,45.2150778 C22.0875799,45.2228218 22.1027596,45.2308283 22.1180701,45.2387035 C22.1810133,45.2709919 22.242648,45.3053804 22.3031049,45.3414752 C22.3360814,45.3612945 22.3693196,45.3804576 22.4015109,45.4014582 C22.4259816,45.4172086 22.4495362,45.4341403 22.4733526,45.4502845 C22.5096006,45.4750915 22.5455868,45.5002922 22.5809188,45.526543 C22.6009402,45.5415059 22.6207,45.5564688 22.640198,45.5718255 C22.682858,45.605164 22.7249947,45.6395524 22.7659536,45.6751222 C22.7773383,45.684835 22.7887231,45.694154 22.799977,45.703998 C22.9087209,45.8006008 23.0111836,45.904685 23.1065799,46.0152007 C23.1153474,46.0254385 23.1239841,46.0356763 23.1326208,46.0460453 C23.1727946,46.0936904 23.2115289,46.1426481 23.2490855,46.1926557 C23.2562827,46.2022373 23.2637417,46.2116875 23.2708081,46.2214003 C23.3565208,46.3384786 23.4346437,46.4618572 23.5047842,46.5906171 C23.5140752,46.6076801 23.5228427,46.6251368 23.5320029,46.6424623 C23.5568661,46.6901074 23.5805516,46.7386713 23.6031902,46.7878915 C23.6122195,46.807317 23.6212488,46.8267426 23.6298855,46.8462994 C23.6577585,46.9100887 23.684192,46.9747968 23.7081392,47.0405549 C23.7090553,47.0429175 23.7098404,47.0450176 23.7107564,47.0473801 C23.8401761,47.4059654 24.1445544,47.6725417 24.5161943,47.752869 C24.6148621,47.7741321 24.711567,47.8001204 24.8067015,47.8293899 C24.8377152,47.8389715 24.8678128,47.850653 24.8985647,47.8610221 C24.9619005,47.8822852 25.0249746,47.9039421 25.0866092,47.9286178 C25.1222029,47.9429244 25.1568806,47.9590686 25.1918199,47.9744253 C25.2469116,47.998576 25.3017416,48.0231205 25.3553938,48.0498962 C25.391511,48.067878 25.4265812,48.0873036 25.4619132,48.1064666 C25.5126865,48.1338986 25.5629364,48.1622494 25.6120086,48.192044 C25.646948,48.2131759 25.6813639,48.2350953 25.7155181,48.2574084 C25.7631509,48.2885155 25.8101293,48.3209352 25.8561917,48.3542737 C25.8890373,48.3780306 25.9214904,48.4017875 25.95342,48.4265945 C25.9990898,48.462033 26.0433202,48.4989153 26.087158,48.5363226 C26.1168631,48.5616546 26.1469607,48.5868553 26.1758805,48.6131061 C26.2207652,48.6540572 26.263687,48.6967147 26.3064779,48.7396347 C26.3317337,48.7649666 26.3579056,48.7897736 26.3823762,48.8160243 C26.4305324,48.8673446 26.4760713,48.9208961 26.5212177,48.9747101 C26.5379677,48.994792 26.5557645,49.0136925 26.5721219,49.0340368 C26.6323171,49.1093765 26.6897643,49.1868162 26.74394,49.2667497 C26.7553247,49.2834189 26.7651391,49.3012694 26.7761313,49.3180699 C26.8178754,49.3818592 26.8585725,49.4463048 26.8963908,49.512588 C26.9134025,49.5426451 26.928713,49.5738835 26.9449396,49.6044656 C26.974252,49.6593297 27.003041,49.714325 27.0296054,49.7706328 C27.0460937,49.8056776 27.0607499,49.8415099 27.0760604,49.8769484 C27.0993533,49.9308937 27.1218611,49.984839 27.1425368,50.0399655 C27.1566696,50.0777666 27.1696247,50.1159614 27.1825797,50.1542875 C27.2010309,50.2088891 27.2183043,50.2638844 27.2342691,50.319536 C27.245523,50.3589121 27.2559917,50.3985508 27.2660678,50.4383206 C27.2800698,50.4947598 27.2923705,50.5515926 27.3037553,50.6088193 C27.3117377,50.6487204 27.3194584,50.6886215 27.3261322,50.7290477 C27.3292728,50.747817 27.3308431,50.7668488 27.3335911,50.7857493 L4.92383609,50.7857493 L4.92383609,50.7857493 Z M29.5595048,50.7858806 L29.5595048,50.7857493 C29.5585888,50.775249 29.5563641,50.76488 29.555579,50.7545109 C29.5428857,50.6223384 29.5265283,50.4909534 29.5049365,50.3611434 C29.5036279,50.3535307 29.5019268,50.345918 29.5006182,50.3383053 C29.4781104,50.2058703 29.4512843,50.0747478 29.4198781,49.9450691 C29.4185695,49.9394252 29.4175226,49.9337812 29.4160832,49.9283998 C29.3845461,49.7999024 29.3480364,49.6732426 29.3082553,49.5480265 C29.3039369,49.5346386 29.3000111,49.520857 29.2955619,49.5074691 C29.2563042,49.3869781 29.2125972,49.2683248 29.1656188,49.1509839 C29.1588141,49.1340522 29.1522712,49.1169892 29.1453357,49.1001887 C29.0982264,48.9853417 29.0473222,48.8724635 28.9931465,48.7612915 C28.9846407,48.7437035 28.9761348,48.7262468 28.9673673,48.70879 C28.9121447,48.5982744 28.8537815,48.4895963 28.792016,48.3830182 C28.7825942,48.366874 28.7731723,48.3509923 28.7636196,48.3348481 C28.7000221,48.2273513 28.6334148,48.1218233 28.5631434,48.0187891 C28.5546376,48.0061887 28.5457392,47.9939821 28.5371025,47.9816443 C28.4638214,47.8758538 28.3877922,47.7720321 28.3079681,47.6713604 C28.3029955,47.6650603 28.2976303,47.6590226 28.2926576,47.6525911 C28.2091695,47.5481132 28.1225408,47.4462603 28.0321171,47.3476887 C28.0310703,47.3466387 28.0301542,47.3454574 28.0292382,47.3444074 C27.9397306,47.2470171 27.846428,47.1529081 27.7505083,47.0615555 C27.7421333,47.0535491 27.7340201,47.0452801 27.7256451,47.0374048 C27.6333894,46.9506461 27.5378622,46.8671687 27.4399796,46.7863164 C27.4268937,46.7755536 27.4139386,46.7645283 27.4007219,46.7536342 C27.3044096,46.6755383 27.2054801,46.6005924 27.1040642,46.5285341 C27.0883612,46.5173775 27.0726581,46.5062209 27.056955,46.4951956 C26.95567,46.4245811 26.8518987,46.3571167 26.7459028,46.2929336 C26.7292837,46.2829583 26.7125338,46.272983 26.6959147,46.263139 C26.5884793,46.1994809 26.4790811,46.138973 26.3674583,46.0821401 C26.3521477,46.0742649 26.3365755,46.0670459 26.3211341,46.0594332 C26.2059781,46.0023378 26.0889901,45.94813 25.9695157,45.8985161 C25.9589161,45.8940535 25.9481856,45.8902471 25.9375861,45.8859157 C25.8123539,45.834858 25.6852897,45.7872129 25.5557391,45.744818 C25.5553466,45.7446867 25.5548231,45.7444242 25.5542997,45.7441617 C25.5486728,45.7327426 25.5422607,45.7221111 25.5366337,45.7108232 C25.4920108,45.6211769 25.4452941,45.5331057 25.396091,45.4464782 C25.3709661,45.4022457 25.34414,45.3590632 25.3179681,45.315487 C25.2861694,45.2631167 25.2541089,45.2108777 25.2207398,45.1595575 C25.1886793,45.1100748 25.1557028,45.061511 25.1219412,45.0132096 C25.0926287,44.9713396 25.0625311,44.930126 25.0321718,44.8890435 C24.9939609,44.8371983 24.9556192,44.7856156 24.9155763,44.7352141 C24.8920217,44.705682 24.8672893,44.6773312 24.8432112,44.6484554 C24.7501704,44.5362335 24.6529421,44.4279491 24.5512645,44.3234711 C24.5337294,44.3054894 24.5169795,44.2868513 24.4993135,44.2691321 C24.4488019,44.2187307 24.3965891,44.1704293 24.3442454,44.1219966 C24.314017,44.0940396 24.2839194,44.0662138 24.2530366,44.038913 C24.2030484,43.9948118 24.1522751,43.951498 24.1004549,43.9089718 C24.0627675,43.8779959 24.0244257,43.8482013 23.9859532,43.8181442 C23.9379279,43.7809994 23.8902951,43.7434608 23.8409612,43.7077598 C23.7716059,43.6573584 23.7006803,43.6093195 23.6289695,43.5621994 C23.609864,43.5495991 23.5916746,43.5356862 23.5723075,43.5233483 C24.3768293,42.1601469 25.8495179,41.2934784 27.4766202,41.2934784 C27.576204,41.2934784 27.6842936,41.2980723 27.816723,41.3077851 C28.2889936,41.3430923 28.7319517,41.0710033 28.915547,40.6324846 C29.590911,39.0204261 31.1536306,37.9787963 32.8965432,37.9787963 C35.1346267,37.9787963 37.0238398,39.7302463 37.1976207,41.9660226 C37.2398882,42.5095444 37.6704147,42.9413692 38.2124332,42.9837642 C39.8961975,43.1154117 41.3558001,44.2304122 41.9310568,45.824489 C42.0604764,46.1830742 42.3648548,46.4496506 42.7364947,46.5299779 C44.773186,46.9702029 46.2840854,48.7269031 46.4538097,50.7862743 L29.5595048,50.7862743 L29.5595048,50.7858806 Z" id="Shape"></path>
                        </g>
                    </g>
                </g>
            </g>
        </g>
    </g>
</svg>