<?xml version="1.0" encoding="UTF-8"?>
<svg width="80px" height="46px" viewBox="0 0 80 46" version="1.1" xmlns="http://www.w3.org/2000/svg" xmlns:xlink="http://www.w3.org/1999/xlink">
    <!-- Generator: Sketch 46 (44423) - http://www.bohemiancoding.com/sketch -->
    <title>graphic-groundwaterlevel</title>
    <desc>Created with Sketch.</desc>
    <defs></defs>
    <g id="Page-1" stroke="none" stroke-width="1" fill="none" fill-rule="evenodd">
        <g id="Desktop-HD-Detail-A" transform="translate(-217.000000, -1774.000000)" fill-rule="nonzero" fill="#000000">
            <g id="wateroverlastscore" transform="translate(192.000000, 1444.000000)">
                <g id="graphics" transform="translate(0.000000, 147.000000)">
                    <g id="grondwaterpeil" transform="translate(0.000000, 183.000000)">
                        <g id="graphic-groundwaterlevel" transform="translate(25.000000, 0.000000)">
                            <g id="sea-waves" transform="translate(0.000000, 5.000000)">
                                <path d="M53.5699756,6 C51.337447,6 50.2002891,4.81137114 49.196941,3.76264178 C48.2910464,2.81556353 47.5753821,2.06748026 46.0461476,2.06748026 C44.516913,2.06748026 43.8012487,2.81556353 42.8952032,3.76264178 C41.8920061,4.81137114 40.7548481,6 38.5221686,6 C36.2894892,6 35.1524821,4.81137114 34.149134,3.76264178 C33.2432394,2.81556353 32.527726,2.06748026 30.9984914,2.06748026 C29.4694077,2.06748026 28.7538943,2.81556353 27.8479997,3.76264178 C26.8448025,4.81137114 25.7076445,6 23.4749651,6 C21.2425873,6 20.1057311,4.81137114 19.1025339,3.76264178 C18.1967902,2.81556353 17.4812767,2.06748026 15.9523439,2.06748026 C14.4232602,2.06748026 13.7077467,2.81556353 12.8018521,3.76264178 C11.7986549,4.81137114 10.661497,6 8.42896838,6 C6.19628892,6 5.05913097,4.81137114 4.05578292,3.76264178 C3.14988832,2.81556353 2.43437489,2.06748026 0.905140321,2.06748026 C0.405352007,2.06748026 0,1.60470926 0,1.03374013 C0,0.462943288 0.405352007,0 0.905140321,0 C3.13766892,0 4.27482688,1.18862886 5.27817493,2.23735822 C6.18406953,3.18443647 6.89973381,3.93251974 8.42896838,3.93251974 C9.9580521,3.93251974 10.6735655,3.18443647 11.5794601,2.23753051 C12.5826573,1.18862886 13.7198153,2.44838846e-15 15.9523439,2.44838846e-15 C18.1847216,2.44838846e-15 19.3217287,1.18880115 20.3249259,2.23753051 C21.2306697,3.18460876 21.9460322,3.93251974 23.4749651,3.93251974 C25.0041997,3.93251974 25.7197131,3.18443647 26.6256077,2.23753051 C27.6288049,1.18862886 28.7659628,2.44838846e-15 30.9984914,2.44838846e-15 C33.2311709,2.44838846e-15 34.368178,1.18862886 35.371526,2.23753051 C36.2774206,3.18443647 36.9930849,3.93251974 38.5221686,3.93251974 C40.0515541,3.93251974 40.7670675,3.18443647 41.6729621,2.23753051 C42.6763101,1.18862886 43.8134681,2.44838846e-15 46.0461476,2.44838846e-15 C48.278827,2.44838846e-15 49.415985,1.18862886 50.419333,2.23753051 C51.3252276,3.18443647 52.040741,3.93251974 53.5699756,3.93251974 C55.0995119,3.93251974 55.8151762,3.18443647 56.7213725,2.23735822 C57.7247206,1.18862886 58.8620294,0 61.0948597,0 C61.594648,0 62,0.462943288 62,1.03374013 C62,1.60470926 61.594648,2.06748026 61.0948597,2.06748026 C59.5653234,2.06748026 58.8496591,2.81556353 57.9434628,3.76264178 C56.9401147,4.81137114 55.8029568,6 53.5699756,6 Z" id="Shape"></path>
                                <path d="M53.5699756,14 C51.337447,14 50.2002891,12.8113711 49.196941,11.7626418 C48.2910464,10.8155635 47.5753821,10.0674803 46.0461476,10.0674803 C44.516913,10.0674803 43.8012487,10.8155635 42.8952032,11.7626418 C41.8920061,12.8113711 40.7548481,14 38.5221686,14 C36.2894892,14 35.1524821,12.8113711 34.149134,11.7626418 C33.2432394,10.8155635 32.527726,10.0674803 30.9984914,10.0674803 C29.4694077,10.0674803 28.7538943,10.8155635 27.8479997,11.7626418 C26.8448025,12.8113711 25.7076445,14 23.4749651,14 C21.2425873,14 20.1057311,12.8113711 19.1025339,11.7626418 C18.1967902,10.8155635 17.4812767,10.0674803 15.9523439,10.0674803 C14.4232602,10.0674803 13.7077467,10.8155635 12.8018521,11.7626418 C11.7986549,12.8113711 10.661497,14 8.42896838,14 C6.19628892,14 5.05913097,12.8113711 4.05578292,11.7626418 C3.14988832,10.8155635 2.43437489,10.0674803 0.905140321,10.0674803 C0.405352007,10.0674803 0,9.60470926 0,9.03374013 C0,8.46294329 0.405352007,8 0.905140321,8 C3.13766892,8 4.27482688,9.18862886 5.27817493,10.2373582 C6.18406953,11.1844365 6.89973381,11.9325197 8.42896838,11.9325197 C9.9580521,11.9325197 10.6735655,11.1844365 11.5794601,10.2375305 C12.5826573,9.18862886 13.7198153,8 15.9523439,8 C18.1847216,8 19.3217287,9.18880115 20.3249259,10.2375305 C21.2306697,11.1846088 21.9460322,11.9325197 23.4749651,11.9325197 C25.0041997,11.9325197 25.7197131,11.1844365 26.6256077,10.2375305 C27.6288049,9.18862886 28.7659628,8 30.9984914,8 C33.2311709,8 34.368178,9.18862886 35.371526,10.2375305 C36.2774206,11.1844365 36.9930849,11.9325197 38.5221686,11.9325197 C40.0515541,11.9325197 40.7670675,11.1844365 41.6729621,10.2375305 C42.6763101,9.18862886 43.8134681,8 46.0461476,8 C48.278827,8 49.415985,9.18862886 50.419333,10.2375305 C51.3252276,11.1844365 52.040741,11.9325197 53.5699756,11.9325197 C55.0995119,11.9325197 55.8151762,11.1844365 56.7213725,10.2373582 C57.7247206,9.18862886 58.8620294,8 61.0948597,8 C61.594648,8 62,8.46294329 62,9.03374013 C62,9.60470926 61.594648,10.0674803 61.0948597,10.0674803 C59.5653234,10.0674803 58.8496591,10.8155635 57.9434628,11.7626418 C56.9401147,12.8113711 55.8029568,14 53.5699756,14 Z" id="Shape"></path>
                                <path d="M53.5699756,22 C51.337447,22 50.2002891,20.8113711 49.196941,19.7626418 C48.2910464,18.8155635 47.5753821,18.0674803 46.0461476,18.0674803 C44.516913,18.0674803 43.8012487,18.8155635 42.8952032,19.7624695 C41.8920061,20.8113711 40.7548481,22 38.5221686,22 C36.2894892,22 35.1524821,20.8113711 34.149134,19.7624695 C33.2432394,18.8155635 32.527726,18.0674803 30.9984914,18.0674803 C29.4694077,18.0674803 28.7538943,18.8155635 27.8479997,19.7624695 C26.8448025,20.8113711 25.7076445,22 23.4749651,22 C21.2425873,22 20.1057311,20.8113711 19.1025339,19.7624695 C18.1967902,18.8155635 17.4812767,18.0674803 15.9523439,18.0674803 C14.4232602,18.0674803 13.7077467,18.8155635 12.8018521,19.7624695 C11.7986549,20.8113711 10.661497,22 8.42896838,22 C6.19628892,22 5.05913097,20.8113711 4.05578292,19.7624695 C3.14988832,18.8155635 2.43422404,18.0674803 0.905140321,18.0674803 C0.405352007,18.0674803 0,17.604537 0,17.0337401 C0,16.462771 0.405352007,16 0.905140321,16 C3.13766892,16 4.27482688,17.1886289 5.27817493,18.2373582 C6.18406953,19.1844365 6.89973381,19.9325197 8.42896838,19.9325197 C9.9580521,19.9325197 10.6735655,19.1844365 11.5794601,18.2373582 C12.5826573,17.1886289 13.7198153,16 15.9523439,16 C18.1847216,16 19.3217287,17.1886289 20.3249259,18.2375305 C21.2306697,19.1844365 21.9460322,19.9325197 23.4749651,19.9325197 C25.0041997,19.9325197 25.7197131,19.1844365 26.6256077,18.2373582 C27.6288049,17.1886289 28.7659628,16 30.9984914,16 C33.2311709,16 34.368178,17.1886289 35.371526,18.2373582 C36.2774206,19.1844365 36.9930849,19.9325197 38.5221686,19.9325197 C40.0515541,19.9325197 40.7670675,19.1844365 41.6729621,18.2373582 C42.6763101,17.1886289 43.8134681,16 46.0461476,16 C48.278827,16 49.415985,17.1886289 50.419333,18.2373582 C51.3252276,19.1844365 52.040741,19.9325197 53.5699756,19.9325197 C55.0995119,19.9325197 55.8151762,19.1844365 56.7213725,18.2373582 C57.7247206,17.1886289 58.8620294,16 61.0948597,16 C61.594648,16 62,16.462771 62,17.0337401 C62,17.604537 61.594648,18.0674803 61.0948597,18.0674803 C59.5653234,18.0674803 58.8496591,18.8155635 57.9434628,19.7626418 C56.9401147,20.8113711 55.8029568,22 53.5699756,22 Z" id="Shape"></path>
                                <path d="M53.5699756,30 C51.337447,30 50.2002891,28.8113711 49.196941,27.7626418 C48.2910464,26.8155635 47.5753821,26.0674803 46.0461476,26.0674803 C44.516913,26.0674803 43.8012487,26.8155635 42.8952032,27.7624695 C41.8920061,28.8113711 40.7548481,30 38.5221686,30 C36.2894892,30 35.1524821,28.8113711 34.149134,27.7624695 C33.2432394,26.8155635 32.527726,26.0674803 30.9984914,26.0674803 C29.4694077,26.0674803 28.7538943,26.8155635 27.8479997,27.7624695 C26.8448025,28.8113711 25.7076445,30 23.4749651,30 C21.2425873,30 20.1057311,28.8113711 19.1025339,27.7624695 C18.1967902,26.8155635 17.4812767,26.0674803 15.9523439,26.0674803 C14.4232602,26.0674803 13.7077467,26.8155635 12.8018521,27.7624695 C11.7986549,28.8113711 10.661497,30 8.42896838,30 C6.19628892,30 5.05913097,28.8113711 4.05578292,27.7624695 C3.14988832,26.8155635 2.43422404,26.0674803 0.905140321,26.0674803 C0.405352007,26.0674803 0,25.604537 0,25.0337401 C0,24.462771 0.405352007,24 0.905140321,24 C3.13766892,24 4.27482688,25.1886289 5.27817493,26.2373582 C6.18406953,27.1844365 6.89973381,27.9325197 8.42896838,27.9325197 C9.9580521,27.9325197 10.6735655,27.1844365 11.5794601,26.2373582 C12.5826573,25.1886289 13.7198153,24 15.9523439,24 C18.1847216,24 19.3217287,25.1886289 20.3249259,26.2375305 C21.2306697,27.1844365 21.9460322,27.9325197 23.4749651,27.9325197 C25.0041997,27.9325197 25.7197131,27.1844365 26.6256077,26.2373582 C27.6288049,25.1886289 28.7659628,24 30.9984914,24 C33.2311709,24 34.368178,25.1886289 35.371526,26.2373582 C36.2774206,27.1844365 36.9930849,27.9325197 38.5221686,27.9325197 C40.0515541,27.9325197 40.7670675,27.1844365 41.6729621,26.2373582 C42.6763101,25.1886289 43.8134681,24 46.0461476,24 C48.278827,24 49.415985,25.1886289 50.419333,26.2373582 C51.3252276,27.1844365 52.040741,27.9325197 53.5699756,27.9325197 C55.0995119,27.9325197 55.8151762,27.1844365 56.7213725,26.2373582 C57.7247206,25.1886289 58.8620294,24 61.0948597,24 C61.594648,24 62,24.462771 62,25.0337401 C62,25.604537 61.594648,26.0674803 61.0948597,26.0674803 C59.5653234,26.0674803 58.8496591,26.8155635 57.9434628,27.7626418 C56.9401147,28.8113711 55.8029568,30 53.5699756,30 Z" id="Shape"></path>
                                <path d="M53.5699756,37 C51.337447,37 50.2002891,35.8113711 49.196941,34.7626418 C48.2910464,33.8155635 47.5753821,33.0674803 46.0461476,33.0674803 C44.516913,33.0674803 43.8012487,33.8155635 42.8952032,34.7624695 C41.8920061,35.8113711 40.7548481,37 38.5221686,37 C36.2894892,37 35.1524821,35.8113711 34.149134,34.7624695 C33.2432394,33.8155635 32.527726,33.0674803 30.9984914,33.0674803 C29.4694077,33.0674803 28.7538943,33.8155635 27.8479997,34.7624695 C26.8448025,35.8113711 25.7076445,37 23.4749651,37 C21.2425873,37 20.1057311,35.8113711 19.1025339,34.7624695 C18.1967902,33.8155635 17.4812767,33.0674803 15.9523439,33.0674803 C14.4232602,33.0674803 13.7077467,33.8155635 12.8018521,34.7624695 C11.7986549,35.8113711 10.661497,37 8.42896838,37 C6.19628892,37 5.05913097,35.8113711 4.05578292,34.7624695 C3.14988832,33.8155635 2.43422404,33.0674803 0.905140321,33.0674803 C0.405352007,33.0674803 0,32.604537 0,32.0337401 C0,31.4625987 0.405352007,31 0.905140321,31 C3.13766892,31 4.27482688,32.1886289 5.27817493,33.2373582 C6.18406953,34.1844365 6.89973381,34.9325197 8.42896838,34.9325197 C9.9580521,34.9325197 10.6735655,34.1844365 11.5794601,33.2373582 C12.5826573,32.1886289 13.7198153,31 15.9523439,31 C18.1847216,31 19.3217287,32.1886289 20.3249259,33.2375305 C21.2306697,34.1844365 21.9460322,34.9325197 23.4749651,34.9325197 C25.0041997,34.9325197 25.7197131,34.1844365 26.6256077,33.2373582 C27.6288049,32.1886289 28.7659628,31 30.9984914,31 C33.2311709,31 34.368178,32.1886289 35.371526,33.2373582 C36.2774206,34.1844365 36.9930849,34.9325197 38.5221686,34.9325197 C40.0515541,34.9325197 40.7670675,34.1844365 41.6729621,33.2373582 C42.6763101,32.1886289 43.8134681,31 46.0461476,31 C48.278827,31 49.415985,32.1886289 50.419333,33.2373582 C51.3252276,34.1844365 52.040741,34.9325197 53.5699756,34.9325197 C55.0995119,34.9325197 55.8151762,34.1844365 56.7213725,33.2373582 C57.7247206,32.1886289 58.8620294,31 61.0948597,31 C61.594648,31 62,31.4625987 62,32.0337401 C62,32.604537 61.594648,33.0674803 61.0948597,33.0674803 C59.5653234,33.0674803 58.8496591,33.8155635 57.9434628,34.7626418 C56.9401147,35.8113711 55.8029568,37 53.5699756,37 Z" id="Shape"></path>
                            </g>
                            <path d="M78.3355215,0.557926202 L71.9754785,0.557926202 C71.4147313,0.557926202 70.96,1.01255591 70.96,1.57340465 C70.96,2.1342534 71.4147313,2.58888311 71.9754785,2.58888311 L77.3200431,2.58888311 L77.3200431,7.7000908 L74.1079832,7.7000908 C73.547236,7.7000908 73.0925048,8.1547205 73.0925048,8.71556925 C73.0925048,9.276418 73.547236,9.73104771 74.1079832,9.73104771 L77.3200431,9.73104771 L77.3200431,14.8422554 L74.1079832,14.8422554 C73.547236,14.8422554 73.0925048,15.2968851 73.0925048,15.8577339 C73.0925048,16.4185826 73.547236,16.8732123 74.1079832,16.8732123 L77.3200431,16.8732123 L77.3200431,21.9845215 L71.9754785,21.9845215 C71.4147313,21.9845215 70.96,22.4391513 70.96,23 C70.96,23.5608487 71.4147313,24.0154785 71.9754785,24.0154785 L77.3200431,24.0154785 L77.3200431,29.1266861 L74.1079832,29.1266861 C73.547236,29.1266861 73.0925048,29.5813158 73.0925048,30.1421646 C73.0925048,30.7030133 73.547236,31.1576431 74.1079832,31.1576431 L77.3200431,31.1576431 L77.3200431,36.2688507 L74.1079832,36.2688507 C73.547236,36.2688507 73.0925048,36.7234804 73.0925048,37.2843292 C73.0925048,37.8451779 73.547236,38.2998077 74.1079832,38.2998077 L77.3200431,38.2998077 L77.3200431,43.4111169 L71.9754785,43.4111169 C71.4147313,43.4111169 70.96,43.8657466 70.96,44.4265953 C70.96,44.9874441 71.4147313,45.4420738 71.9754785,45.4420738 L78.3355215,45.4420738 C78.8962687,45.4420738 79.351,44.9874441 79.351,44.4265953 L79.351,1.57340465 C79.351,1.01255591 78.8962687,0.557926202 78.3355215,0.557926202 Z" id="Shape"></path>
                        </g>
                    </g>
                </g>
            </g>
        </g>
    </g>
</svg>