<?xml version="1.0" encoding="UTF-8"?>
<svg width="233px" height="112px" viewBox="0 0 233 112" version="1.1" xmlns="http://www.w3.org/2000/svg" xmlns:xlink="http://www.w3.org/1999/xlink">
    <!-- Generator: Sketch 46 (44423) - http://www.bohemiancoding.com/sketch -->
    <title>logos</title>
    <desc>Created with Sketch.</desc>
    <defs></defs>
    <g id="Page-1" stroke="none" stroke-width="1" fill="none" fill-rule="evenodd">
        <g id="Desktop-HD-Variant-A" transform="translate(-40.000000, -32.000000)">
            <g id="logos" transform="translate(33.000000, 27.000000)">
                <g id="logo" transform="translate(7.000000, 5.000000)">
                    <path d="M32.0999085,-6.2478594e-15 C39.8347379,-6.90199084e-15 46.1050561,6.26806528 46.1050561,13.9957104 L46.1050561,105.388071 C46.1050561,108.706706 43.4269706,111.396991 40.1012763,111.396991 L6.00377979,111.396991 C2.68798377,111.396991 0,108.712257 0,105.388071 L-7.10542736e-15,13.9957104 C-7.10542736e-15,6.26609298 6.26591535,-4.0630889e-15 14.0051476,-4.71759269e-15 L32.0999085,-6.2478594e-15 Z M21.3027342,27.5257901 C24.9525837,27.5257901 27.9113714,24.5633753 27.9113714,20.9090513 C27.9113714,17.2547274 24.9525837,14.2923125 21.3027342,14.2923125 C17.6528847,14.2923125 14.6940971,17.2547274 14.6940971,20.9090513 C14.6940971,24.5633753 17.6528847,27.5257901 21.3027342,27.5257901 Z" id="Combined-Shape" fill="#00D08A" transform="translate(23.052528, 55.698496) scale(1, -1) translate(-23.052528, -55.698496) "></path>
                    <path d="M31.9487305,37.749161 L32.0928302,37.749161 L37.2323878,12.5007909 L43.3806436,12.5007909 L35.0708916,47.5118641 L29.7632177,47.5118641 L22.77438,22.600139 L22.6302803,22.600139 L15.617426,47.5118641 L10.2857354,47.5118641 L2,12.5007909 L8.12423919,12.5007909 L13.31183,37.7251149 L13.4559298,37.7251149 L20.1085347,12.5007909 L25.2480923,12.5007909 L31.9487305,37.749161 Z M62.0175441,47.5118641 C61.8093989,46.8546017 61.6372815,46.2133796 61.5011866,45.5881788 C61.3650918,44.9629779 61.2730289,44.3377864 61.2249955,43.7125856 C60.4404485,44.9309257 59.391733,45.9528733 58.0788177,46.7784591 C56.7659023,47.6040448 55.3009029,48.0168315 53.6837754,48.0168315 C50.9778889,48.0168315 48.9004717,47.3195025 47.4514614,45.9248237 C46.0024512,44.5301448 45.2779569,42.614494 45.2779569,40.1778137 C45.2779569,37.6609795 46.2706342,35.7012447 48.2560184,34.2985504 C50.2414026,32.8958562 53.0353086,32.1945196 56.6378202,32.1945196 L61.1769622,32.1945196 L61.1769622,29.9101433 C61.1769622,28.547526 60.7806919,27.4814944 59.9881393,26.7120164 C59.1955867,25.9425384 58.046803,25.5578052 56.5417537,25.5578052 C55.2128272,25.5578052 54.1561063,25.8744086 53.3715593,26.5076248 C52.5870123,27.1408411 52.1947447,27.9624068 52.1947447,28.9723466 L46.5748547,28.9963927 L46.550838,28.8521163 C46.4387599,26.800175 47.3553852,24.9807075 49.3007415,23.3936592 C51.2460978,21.8066108 53.7798263,21.0130986 56.9020031,21.0130986 C59.9281129,21.0130986 62.3697786,21.782565 64.2270735,23.321521 C66.0843684,24.8604769 67.0130019,27.0726929 67.0130019,29.9582354 L67.0130019,41.5243935 C67.0130019,42.5984565 67.0850511,43.6284194 67.2291515,44.6143131 C67.373252,45.6002067 67.6054104,46.5660474 67.9256336,47.5118641 L62.0175441,47.5118641 Z M54.8846066,43.3278485 C56.3416225,43.3278485 57.6585209,42.9591458 58.8353413,42.2217294 C60.0121618,41.484313 60.7926943,40.6427091 61.1769622,39.6968924 L61.1769622,35.8495217 L56.5417537,35.8495217 C54.8445705,35.8495217 53.5156639,36.2703237 52.5549941,37.1119402 C51.5943243,37.9535568 51.1139966,38.9434433 51.1139966,40.0816295 C51.1139966,41.0755385 51.4382178,41.8650432 52.0866699,42.4501671 C52.735122,43.0352909 53.6677583,43.3278485 54.8846066,43.3278485 Z M80.5823946,15.1699043 L80.5823946,21.4940199 L85.2416197,21.4940199 L85.2416197,25.8223119 L80.5823946,25.8223119 L80.5823946,40.2018598 C80.5823946,41.2759228 80.814553,42.0413816 81.2788767,42.4982592 C81.7432005,42.9551367 82.359621,43.1835721 83.1281568,43.1835721 C83.4483801,43.1835721 83.760593,43.1555186 84.0648051,43.0994109 C84.3690172,43.0433031 84.6572138,42.967158 84.9294036,42.8709732 L85.5538358,47.1511731 C85.0574898,47.4236965 84.4690884,47.6361013 83.788614,47.7883939 C83.1081395,47.9406864 82.3996562,48.0168315 81.6631427,48.0168315 C79.5176469,48.0168315 77.8324973,47.3876324 76.6076433,46.1292153 C75.3827893,44.8707981 74.7703715,42.8950328 74.7703715,40.2018598 L74.7703715,25.8223119 L70.8076285,25.8223119 L70.8076285,21.4940199 L74.7703715,21.4940199 L74.7703715,15.1699043 L80.5823946,15.1699043 Z M100.972509,48.0168315 C97.177863,48.0168315 94.2118396,46.8185478 92.0743493,44.4219445 C89.9368591,42.0253412 88.86813,38.919422 88.86813,35.1040937 L88.86813,34.142251 C88.86813,30.3269227 89.9368591,27.1809271 92.0743493,24.7041698 C94.2118396,22.2274125 96.969721,20.9970678 100.348076,21.0130986 C103.83851,21.0130986 106.480312,22.0911531 108.273562,24.2472945 C110.066813,26.403436 110.963424,29.2849275 110.963424,32.8918555 L110.963424,36.0418903 L94.8963027,36.0418903 L94.8482694,36.1621206 C94.9123141,38.2942158 95.4726964,40.0255153 96.5294331,41.356071 C97.5861699,42.6866267 99.1792567,43.3518946 101.308741,43.3518946 C102.893846,43.3518946 104.266783,43.1595279 105.427592,42.774789 C106.588402,42.39005 107.665136,41.836996 108.657828,41.1156103 L110.555142,44.938935 C109.56245,45.8045977 108.249554,46.5339878 106.616415,47.127127 C104.983277,47.7202663 103.101993,48.0168315 100.972509,48.0168315 Z M100.348076,25.7020816 C98.8270159,25.7020816 97.6101858,26.2511279 96.6975495,27.3492371 C95.7849132,28.4473463 95.2165255,29.878073 94.9923692,31.6414601 L95.0404024,31.7616904 L105.199435,31.7616904 L105.199435,31.3048151 C105.199435,29.6376128 104.81117,28.2870389 104.034628,27.2530529 C103.258087,26.2190668 102.029249,25.7020816 100.348076,25.7020816 Z M128.63966,26.7601085 L126.141931,26.6639242 C125.005138,26.6639242 124.056491,26.9043825 123.295961,27.3853062 C122.535431,27.86623 121.947029,28.5475284 121.530739,29.4292219 L121.530739,47.5118641 L115.694699,47.5118641 L115.694699,21.4940199 L121.02639,21.4940199 L121.410656,25.2692524 C122.067114,23.9386967 122.91169,22.8967109 123.94441,22.1432637 C124.97713,21.3898165 126.165941,21.0130986 127.510878,21.0130986 C127.863124,21.0130986 128.191348,21.041152 128.49556,21.0972598 C128.799772,21.1533676 129.079963,21.2214974 129.336142,21.3016514 L128.63966,26.7601085 Z M139.182958,47.5118641 L133.346918,47.5118641 L133.346918,10 L139.182958,10 L139.182958,47.5118641 Z M161.374319,47.5118641 C161.166174,46.8546017 160.994056,46.2133796 160.857961,45.5881788 C160.721866,44.9629779 160.629804,44.3377864 160.58177,43.7125856 C159.797223,44.9309257 158.748508,45.9528733 157.435592,46.7784591 C156.122677,47.6040448 154.657678,48.0168315 153.04055,48.0168315 C150.334664,48.0168315 148.257246,47.3195025 146.808236,45.9248237 C145.359226,44.5301448 144.634732,42.614494 144.634732,40.1778137 C144.634732,37.6609795 145.627409,35.7012447 147.612793,34.2985504 C149.598177,32.8958562 152.392083,32.1945196 155.994595,32.1945196 L160.533737,32.1945196 L160.533737,29.9101433 C160.533737,28.547526 160.137466,27.4814944 159.344914,26.7120164 C158.552361,25.9425384 157.403578,25.5578052 155.898528,25.5578052 C154.569602,25.5578052 153.512881,25.8744086 152.728334,26.5076248 C151.943787,27.1408411 151.551519,27.9624068 151.551519,28.9723466 L145.931629,28.9963927 L145.907613,28.8521163 C145.795535,26.800175 146.71216,24.9807075 148.657516,23.3936592 C150.602872,21.8066108 153.136601,21.0130986 156.258778,21.0130986 C159.284887,21.0130986 161.726553,21.782565 163.583848,23.321521 C165.441143,24.8604769 166.369777,27.0726929 166.369777,29.9582354 L166.369777,41.5243935 C166.369777,42.5984565 166.441826,43.6284194 166.585926,44.6143131 C166.730027,45.6002067 166.962185,46.5660474 167.282408,47.5118641 L161.374319,47.5118641 Z M154.241381,43.3278485 C155.698397,43.3278485 157.015295,42.9591458 158.192116,42.2217294 C159.368936,41.484313 160.149469,40.6427091 160.533737,39.6968924 L160.533737,35.8495217 L155.898528,35.8495217 C154.201345,35.8495217 152.872438,36.2703237 151.911769,37.1119402 C150.951099,37.9535568 150.470771,38.9434433 150.470771,40.0816295 C150.470771,41.0755385 150.794992,41.8650432 151.443445,42.4501671 C152.091897,43.0352909 153.024533,43.3278485 154.241381,43.3278485 Z M195.285792,35.3686004 C195.285792,39.1678979 194.401189,42.2257255 192.631955,44.5421749 C190.862722,46.8586242 188.36902,48.0168315 185.150777,48.0168315 C183.517638,48.0168315 182.100671,47.6801899 180.899834,47.0068967 C179.698997,46.3336035 178.698314,45.3557399 177.897756,44.0732766 L177.201274,47.5118641 L172.469999,47.5118641 L172.469999,10 L178.306039,10 L178.306039,24.4516861 C179.106597,23.3455615 180.067252,22.4959423 181.188034,21.902803 C182.308815,21.3096638 183.613705,21.0130986 185.102743,21.0130986 C188.35301,21.0130986 190.862722,22.2795121 192.631955,24.8123771 C194.401189,27.3452421 195.285792,30.6956273 195.285792,34.863633 L195.285792,35.3686004 Z M189.449752,34.863633 C189.449752,32.1544293 188.985436,29.9662591 188.056788,28.2990568 C187.128141,26.6318545 185.655136,25.7982658 183.637729,25.7982658 C182.340825,25.7982658 181.256085,26.0868158 180.383477,26.6639242 C179.510868,27.2410327 178.818396,28.0425603 178.306039,29.0685309 L178.306039,39.9854452 C178.802385,41.0274466 179.490855,41.8329818 180.371468,42.4020749 C181.252082,42.971168 182.356836,43.2557103 183.685763,43.2557103 C185.703169,43.2557103 187.168169,42.5463584 188.080805,41.1276334 C188.993441,39.7089083 189.449752,37.7892499 189.449752,35.3686004 L189.449752,34.863633 Z M211.352914,48.0168315 C207.558268,48.0168315 204.592245,46.8185478 202.454754,44.4219445 C200.317264,42.0253412 199.248535,38.919422 199.248535,35.1040937 L199.248535,34.142251 C199.248535,30.3269227 200.317264,27.1809271 202.454754,24.7041698 C204.592245,22.2274125 207.350126,20.9970678 210.728482,21.0130986 C214.218915,21.0130986 216.860717,22.0911531 218.653968,24.2472945 C220.447218,26.403436 221.343829,29.2849275 221.343829,32.8918555 L221.343829,36.0418903 L205.276708,36.0418903 L205.228675,36.1621206 C205.292719,38.2942158 205.853102,40.0255153 206.909838,41.356071 C207.966575,42.6866267 209.559662,43.3518946 211.689147,43.3518946 C213.274252,43.3518946 214.647188,43.1595279 215.807998,42.774789 C216.968807,42.39005 218.045541,41.836996 219.038234,41.1156103 L220.935547,44.938935 C219.942855,45.8045977 218.629959,46.5339878 216.99682,47.127127 C215.363682,47.7202663 213.482398,48.0168315 211.352914,48.0168315 Z M210.728482,25.7020816 C209.207421,25.7020816 207.990591,26.2511279 207.077955,27.3492371 C206.165318,28.4473463 205.596931,29.878073 205.372774,31.6414601 L205.420808,31.7616904 L215.57984,31.7616904 L215.57984,31.3048151 C215.57984,29.6376128 215.191575,28.2870389 214.415033,27.2530529 C213.638492,26.2190668 212.409654,25.7020816 210.728482,25.7020816 Z M232.29541,47.5118641 L226.45937,47.5118641 L226.45937,10 L232.29541,10 L232.29541,47.5118641 Z" id="Waterlabel" fill="#FFFFFF"></path>
                </g>
            </g>
        </g>
    </g>
</svg>