<?xml version="1.0" encoding="UTF-8"?>
<svg width="237px" height="112px" viewBox="0 0 237 112" version="1.1" xmlns="http://www.w3.org/2000/svg" xmlns:xlink="http://www.w3.org/1999/xlink">
    <!-- Generator: Sketch 46 (44423) - http://www.bohemiancoding.com/sketch -->
    <title>logo</title>
    <desc>Created with Sketch.</desc>
    <defs></defs>
    <g id="Page-1" stroke="none" stroke-width="1" fill="none" fill-rule="evenodd">
        <g id="Desktop-HD-Detail-A" transform="translate(-40.000000, -32.000000)">
            <g id="logo" transform="translate(33.000000, 27.000000)">
                <g transform="translate(7.000000, 5.000000)">
                    <path d="M32.0999085,-6.2478594e-15 C39.8347379,-6.90199084e-15 46.1050561,6.26806528 46.1050561,13.9957104 L46.1050561,105.388071 C46.1050561,108.706706 43.4269706,111.396991 40.1012763,111.396991 L6.00377979,111.396991 C2.68798377,111.396991 0,108.712257 0,105.388071 L-7.10542736e-15,13.9957104 C-7.10542736e-15,6.26609298 6.26591535,-4.0630889e-15 14.0051476,-4.71759269e-15 L32.0999085,-6.2478594e-15 Z M21.3027342,27.5257901 C24.9525837,27.5257901 27.9113714,24.5633753 27.9113714,20.9090513 C27.9113714,17.2547274 24.9525837,14.2923125 21.3027342,14.2923125 C17.6528847,14.2923125 14.6940971,17.2547274 14.6940971,20.9090513 C14.6940971,24.5633753 17.6528847,27.5257901 21.3027342,27.5257901 Z" id="Combined-Shape" fill="#00D08A" transform="translate(23.052528, 55.698496) scale(1, -1) translate(-23.052528, -55.698496) "></path>
                    <polygon id="Path" fill="#FFFFFF" points="31.9487305 37.749161 32.0928302 37.749161 37.2323878 12.5007909 43.3806436 12.5007909 35.0708916 47.5118641 29.7632177 47.5118641 22.77438 22.600139 22.6302803 22.600139 15.617426 47.5118641 10.2857354 47.5118641 2 12.5007909 8.12423919 12.5007909 13.31183 37.7251149 13.4559298 37.7251149 20.1085347 12.5007909 25.2480923 12.5007909"></polygon>
                    <path d="M66.0175441,47.5118641 C65.8093989,46.8546017 65.6372815,46.2133796 65.5011866,45.5881788 C65.3650918,44.9629779 65.2730289,44.3377864 65.2249955,43.7125856 C64.4404485,44.9309257 63.391733,45.9528733 62.0788177,46.7784591 C60.7659023,47.6040448 59.3009029,48.0168315 57.6837754,48.0168315 C54.9778889,48.0168315 52.9004717,47.3195025 51.4514614,45.9248237 C50.0024512,44.5301448 49.2779569,42.614494 49.2779569,40.1778137 C49.2779569,37.6609795 50.2706342,35.7012447 52.2560184,34.2985504 C54.2414026,32.8958562 57.0353086,32.1945196 60.6378202,32.1945196 L65.1769622,32.1945196 L65.1769622,29.9101433 C65.1769622,28.547526 64.7806919,27.4814944 63.9881393,26.7120164 C63.1955867,25.9425384 62.046803,25.5578052 60.5417537,25.5578052 C59.2128272,25.5578052 58.1561063,25.8744086 57.3715593,26.5076248 C56.5870123,27.1408411 56.1947447,27.9624068 56.1947447,28.9723466 L50.5748547,28.9963927 L50.550838,28.8521163 C50.4387599,26.800175 51.3553852,24.9807075 53.3007415,23.3936592 C55.2460978,21.8066108 57.7798263,21.0130986 60.9020031,21.0130986 C63.9281129,21.0130986 66.3697786,21.782565 68.2270735,23.321521 C70.0843684,24.8604769 71.0130019,27.0726929 71.0130019,29.9582354 L71.0130019,41.5243935 C71.0130019,42.5984565 71.0850511,43.6284194 71.2291515,44.6143131 C71.373252,45.6002067 71.6054104,46.5660474 71.9256336,47.5118641 L66.0175441,47.5118641 Z M58.8846066,43.3278485 C60.3416225,43.3278485 61.6585209,42.9591458 62.8353413,42.2217294 C64.0121618,41.484313 64.7926943,40.6427091 65.1769622,39.6968924 L65.1769622,35.8495217 L60.5417537,35.8495217 C58.8445705,35.8495217 57.5156639,36.2703237 56.5549941,37.1119402 C55.5943243,37.9535568 55.1139966,38.9434433 55.1139966,40.0816295 C55.1139966,41.0755385 55.4382178,41.8650432 56.0866699,42.4501671 C56.735122,43.0352909 57.6677583,43.3278485 58.8846066,43.3278485 Z M84.5823946,15.1699043 L84.5823946,21.4940199 L89.2416197,21.4940199 L89.2416197,25.8223119 L84.5823946,25.8223119 L84.5823946,40.2018598 C84.5823946,41.2759228 84.814553,42.0413816 85.2788767,42.4982592 C85.7432005,42.9551367 86.359621,43.1835721 87.1281568,43.1835721 C87.4483801,43.1835721 87.760593,43.1555186 88.0648051,43.0994109 C88.3690172,43.0433031 88.6572138,42.967158 88.9294036,42.8709732 L89.5538358,47.1511731 C89.0574898,47.4236965 88.4690884,47.6361013 87.788614,47.7883939 C87.1081395,47.9406864 86.3996562,48.0168315 85.6631427,48.0168315 C83.5176469,48.0168315 81.8324973,47.3876324 80.6076433,46.1292153 C79.3827893,44.8707981 78.7703715,42.8950328 78.7703715,40.2018598 L78.7703715,25.8223119 L74.8076285,25.8223119 L74.8076285,21.4940199 L78.7703715,21.4940199 L78.7703715,15.1699043 L84.5823946,15.1699043 Z M104.972509,48.0168315 C101.177863,48.0168315 98.2118396,46.8185478 96.0743493,44.4219445 C93.9368591,42.0253412 92.86813,38.919422 92.86813,35.1040937 L92.86813,34.142251 C92.86813,30.3269227 93.9368591,27.1809271 96.0743493,24.7041698 C98.2118396,22.2274125 100.969721,20.9970678 104.348076,21.0130986 C107.83851,21.0130986 110.480312,22.0911531 112.273562,24.2472945 C114.066813,26.403436 114.963424,29.2849275 114.963424,32.8918555 L114.963424,36.0418903 L98.8963027,36.0418903 L98.8482694,36.1621206 C98.9123141,38.2942158 99.4726964,40.0255153 100.529433,41.356071 C101.58617,42.6866267 103.179257,43.3518946 105.308741,43.3518946 C106.893846,43.3518946 108.266783,43.1595279 109.427592,42.774789 C110.588402,42.39005 111.665136,41.836996 112.657828,41.1156103 L114.555142,44.938935 C113.56245,45.8045977 112.249554,46.5339878 110.616415,47.127127 C108.983277,47.7202663 107.101993,48.0168315 104.972509,48.0168315 Z M104.348076,25.7020816 C102.827016,25.7020816 101.610186,26.2511279 100.69755,27.3492371 C99.7849132,28.4473463 99.2165255,29.878073 98.9923692,31.6414601 L99.0404024,31.7616904 L109.199435,31.7616904 L109.199435,31.3048151 C109.199435,29.6376128 108.81117,28.2870389 108.034628,27.2530529 C107.258087,26.2190668 106.029249,25.7020816 104.348076,25.7020816 Z M132.63966,26.7601085 L130.141931,26.6639242 C129.005138,26.6639242 128.056491,26.9043825 127.295961,27.3853062 C126.535431,27.86623 125.947029,28.5475284 125.530739,29.4292219 L125.530739,47.5118641 L119.694699,47.5118641 L119.694699,21.4940199 L125.02639,21.4940199 L125.410656,25.2692524 C126.067114,23.9386967 126.91169,22.8967109 127.94441,22.1432637 C128.97713,21.3898165 130.165941,21.0130986 131.510878,21.0130986 C131.863124,21.0130986 132.191348,21.041152 132.49556,21.0972598 C132.799772,21.1533676 133.079963,21.2214974 133.336142,21.3016514 L132.63966,26.7601085 Z M143.182958,47.5118641 L137.346918,47.5118641 L137.346918,10 L143.182958,10 L143.182958,47.5118641 Z M165.374319,47.5118641 C165.166174,46.8546017 164.994056,46.2133796 164.857961,45.5881788 C164.721866,44.9629779 164.629804,44.3377864 164.58177,43.7125856 C163.797223,44.9309257 162.748508,45.9528733 161.435592,46.7784591 C160.122677,47.6040448 158.657678,48.0168315 157.04055,48.0168315 C154.334664,48.0168315 152.257246,47.3195025 150.808236,45.9248237 C149.359226,44.5301448 148.634732,42.614494 148.634732,40.1778137 C148.634732,37.6609795 149.627409,35.7012447 151.612793,34.2985504 C153.598177,32.8958562 156.392083,32.1945196 159.994595,32.1945196 L164.533737,32.1945196 L164.533737,29.9101433 C164.533737,28.547526 164.137466,27.4814944 163.344914,26.7120164 C162.552361,25.9425384 161.403578,25.5578052 159.898528,25.5578052 C158.569602,25.5578052 157.512881,25.8744086 156.728334,26.5076248 C155.943787,27.1408411 155.551519,27.9624068 155.551519,28.9723466 L149.931629,28.9963927 L149.907613,28.8521163 C149.795535,26.800175 150.71216,24.9807075 152.657516,23.3936592 C154.602872,21.8066108 157.136601,21.0130986 160.258778,21.0130986 C163.284887,21.0130986 165.726553,21.782565 167.583848,23.321521 C169.441143,24.8604769 170.369777,27.0726929 170.369777,29.9582354 L170.369777,41.5243935 C170.369777,42.5984565 170.441826,43.6284194 170.585926,44.6143131 C170.730027,45.6002067 170.962185,46.5660474 171.282408,47.5118641 L165.374319,47.5118641 Z M158.241381,43.3278485 C159.698397,43.3278485 161.015295,42.9591458 162.192116,42.2217294 C163.368936,41.484313 164.149469,40.6427091 164.533737,39.6968924 L164.533737,35.8495217 L159.898528,35.8495217 C158.201345,35.8495217 156.872438,36.2703237 155.911769,37.1119402 C154.951099,37.9535568 154.470771,38.9434433 154.470771,40.0816295 C154.470771,41.0755385 154.794992,41.8650432 155.443445,42.4501671 C156.091897,43.0352909 157.024533,43.3278485 158.241381,43.3278485 Z M199.285792,35.3686004 C199.285792,39.1678979 198.401189,42.2257255 196.631955,44.5421749 C194.862722,46.8586242 192.36902,48.0168315 189.150777,48.0168315 C187.517638,48.0168315 186.100671,47.6801899 184.899834,47.0068967 C183.698997,46.3336035 182.698314,45.3557399 181.897756,44.0732766 L181.201274,47.5118641 L176.469999,47.5118641 L176.469999,10 L182.306039,10 L182.306039,24.4516861 C183.106597,23.3455615 184.067252,22.4959423 185.188034,21.902803 C186.308815,21.3096638 187.613705,21.0130986 189.102743,21.0130986 C192.35301,21.0130986 194.862722,22.2795121 196.631955,24.8123771 C198.401189,27.3452421 199.285792,30.6956273 199.285792,34.863633 L199.285792,35.3686004 Z M193.449752,34.863633 C193.449752,32.1544293 192.985436,29.9662591 192.056788,28.2990568 C191.128141,26.6318545 189.655136,25.7982658 187.637729,25.7982658 C186.340825,25.7982658 185.256085,26.0868158 184.383477,26.6639242 C183.510868,27.2410327 182.818396,28.0425603 182.306039,29.0685309 L182.306039,39.9854452 C182.802385,41.0274466 183.490855,41.8329818 184.371468,42.4020749 C185.252082,42.971168 186.356836,43.2557103 187.685763,43.2557103 C189.703169,43.2557103 191.168169,42.5463584 192.080805,41.1276334 C192.993441,39.7089083 193.449752,37.7892499 193.449752,35.3686004 L193.449752,34.863633 Z M215.352914,48.0168315 C211.558268,48.0168315 208.592245,46.8185478 206.454754,44.4219445 C204.317264,42.0253412 203.248535,38.919422 203.248535,35.1040937 L203.248535,34.142251 C203.248535,30.3269227 204.317264,27.1809271 206.454754,24.7041698 C208.592245,22.2274125 211.350126,20.9970678 214.728482,21.0130986 C218.218915,21.0130986 220.860717,22.0911531 222.653968,24.2472945 C224.447218,26.403436 225.343829,29.2849275 225.343829,32.8918555 L225.343829,36.0418903 L209.276708,36.0418903 L209.228675,36.1621206 C209.292719,38.2942158 209.853102,40.0255153 210.909838,41.356071 C211.966575,42.6866267 213.559662,43.3518946 215.689147,43.3518946 C217.274252,43.3518946 218.647188,43.1595279 219.807998,42.774789 C220.968807,42.39005 222.045541,41.836996 223.038234,41.1156103 L224.935547,44.938935 C223.942855,45.8045977 222.629959,46.5339878 220.99682,47.127127 C219.363682,47.7202663 217.482398,48.0168315 215.352914,48.0168315 Z M214.728482,25.7020816 C213.207421,25.7020816 211.990591,26.2511279 211.077955,27.3492371 C210.165318,28.4473463 209.596931,29.878073 209.372774,31.6414601 L209.420808,31.7616904 L219.57984,31.7616904 L219.57984,31.3048151 C219.57984,29.6376128 219.191575,28.2870389 218.415033,27.2530529 C217.638492,26.2190668 216.409654,25.7020816 214.728482,25.7020816 Z M236.29541,47.5118641 L230.45937,47.5118641 L230.45937,10 L236.29541,10 L236.29541,47.5118641 Z" id="Waterlabel" fill="#00D38C"></path>
                </g>
            </g>
        </g>
    </g>
</svg>