<?xml version="1.0" encoding="UTF-8"?>
<svg width="56px" height="54px" viewBox="0 0 56 54" version="1.1" xmlns="http://www.w3.org/2000/svg" xmlns:xlink="http://www.w3.org/1999/xlink">
    <!-- Generator: Sketch 46 (44423) - http://www.bohemiancoding.com/sketch -->
    <title>rain (1)</title>
    <desc>Created with Sketch.</desc>
    <defs></defs>
    <g id="Page-1" stroke="none" stroke-width="1" fill="none" fill-rule="evenodd">
        <g id="Desktop-HD-Detail-A" transform="translate(-746.000000, -1773.000000)" fill-rule="nonzero" fill="#000000">
            <g id="wateroverlastscore" transform="translate(192.000000, 1444.000000)">
                <g id="graphics" transform="translate(0.000000, 147.000000)">
                    <g id="neerslaghistorie" transform="translate(504.000000, 182.000000)">
                        <g id="rain-(1)" transform="translate(50.000000, 0.000000)">
                            <path d="M46.7392258,17.8487045 C45.5162581,10.7675455 39.3083871,5.49368182 31.9552258,5.33325 C30.0196129,2.03243182 26.4789677,0 22.5806452,0 C17.9588387,0 13.8672258,2.89131818 12.3597419,7.12193182 C10.0185806,6.88793182 7.81922581,7.94979545 6.53122581,9.78811364 C2.8316129,10.1293636 0,13.1394545 0,16.8409091 C0,19.0683409 1.064,21.1193864 2.82709677,22.4489318 C1.08025806,24.2065909 0,26.6059773 0,29.25 C0,34.6257955 4.45741935,39 9.93548387,39 L9.93548387,37.2272727 C5.45367742,37.2272727 1.80645161,33.6490227 1.80645161,29.25 C1.80645161,24.8509773 5.45367742,21.2727273 9.90025806,21.2718409 L10.5252903,21.2762727 L10.7863226,20.8339773 C11.9162581,18.9176591 14.0126452,17.7272727 16.2580645,17.7272727 C16.6365161,17.7272727 17.032129,17.7653864 17.4340645,17.8389545 L18.2722581,17.9940682 L18.4781935,17.1812727 C19.9793548,11.2408636 25.3806452,7.09090909 31.6129032,7.09090909 C38.444,7.09090909 44.2210323,12.1077273 45.0492903,18.7598864 L45.1125161,19.2642273 C45.1432258,19.6347273 45.1612903,20.0078864 45.1612903,20.3863636 C45.1612903,27.7174773 39.0834839,33.6818182 31.6129032,33.6818182 L31.6129032,35.4545455 C40.0797419,35.4545455 46.9677419,28.6951364 46.9677419,20.3863636 C46.9677419,20.1505909 46.947871,19.9210227 46.9370323,19.6887955 C51.0810323,20.5069091 54.1935484,24.1277045 54.1935484,28.3636364 C54.1935484,33.2510455 50.1416774,37.2272727 45.1612903,37.2272727 L45.1612903,39 C51.1379355,39 56,34.2287045 56,28.3636364 C56,23.0933182 51.987871,18.6056591 46.7392258,17.8487045 Z M16.9409032,15.9846818 C13.924129,15.72675 11.1259355,17.1218864 9.50012903,19.50975 C7.55006452,19.5921818 5.74632258,20.2321364 4.24335484,21.2665227 C2.73135484,20.2862045 1.80645161,18.6402273 1.80645161,16.8409091 C1.80645161,13.9442727 4.12051613,11.61225 7.07316129,11.5315909 L7.57806452,11.5174091 L7.83006452,11.0884091 C8.63754839,9.71631818 10.136,8.86363636 11.7419355,8.86363636 C12.0824516,8.86363636 12.4229677,8.90440909 12.7833548,8.98772727 L13.6369032,9.1845 L13.8627097,8.35309091 C14.9149677,4.47879545 18.4989677,1.77272727 22.5806452,1.77272727 C25.5025806,1.77272727 28.1788387,3.14836364 29.8615484,5.42720455 C23.8225806,6.10261364 18.7292903,10.2162273 16.9409032,15.9846818 Z" id="Shape"></path>
                            <rect id="Rectangle-path" transform="translate(16.000000, 40.000000) rotate(26.565051) translate(-16.000000, -40.000000) " x="15" y="38" width="2" height="4"></rect>
                            <rect id="Rectangle-path" transform="translate(13.000000, 46.000000) rotate(-153.434949) translate(-13.000000, -46.000000) " x="12" y="44" width="2" height="4"></rect>
                            <rect id="Rectangle-path" transform="translate(10.000000, 51.000000) rotate(-153.434949) translate(-10.000000, -51.000000) " x="9" y="49" width="2" height="4"></rect>
                            <rect id="Rectangle-path" transform="translate(21.000000, 40.000000) rotate(26.565051) translate(-21.000000, -40.000000) " x="20" y="38" width="2" height="4"></rect>
                            <rect id="Rectangle-path" transform="translate(19.000000, 46.000000) rotate(-153.434949) translate(-19.000000, -46.000000) " x="18" y="44" width="2" height="4"></rect>
                            <rect id="Rectangle-path" transform="translate(17.000000, 51.000000) rotate(-153.434949) translate(-17.000000, -51.000000) " x="16" y="49" width="2" height="4"></rect>
                            <rect id="Rectangle-path" transform="translate(28.000000, 40.000000) rotate(26.565051) translate(-28.000000, -40.000000) " x="27" y="38" width="2" height="4"></rect>
                            <rect id="Rectangle-path" transform="translate(26.000000, 46.000000) rotate(-153.434949) translate(-26.000000, -46.000000) " x="25" y="44" width="2" height="4"></rect>
                            <rect id="Rectangle-path" transform="translate(22.000000, 51.000000) rotate(-153.434949) translate(-22.000000, -51.000000) " x="21" y="49" width="2" height="4"></rect>
                            <rect id="Rectangle-path" transform="translate(35.000000, 40.000000) rotate(26.565051) translate(-35.000000, -40.000000) " x="34" y="38" width="2" height="4"></rect>
                            <rect id="Rectangle-path" transform="translate(31.000000, 46.000000) rotate(-153.434949) translate(-31.000000, -46.000000) " x="30" y="44" width="2" height="4"></rect>
                            <rect id="Rectangle-path" transform="translate(29.000000, 51.000000) rotate(-153.434949) translate(-29.000000, -51.000000) " x="28" y="49" width="2" height="4"></rect>
                            <rect id="Rectangle-path" transform="translate(41.000000, 40.000000) rotate(-153.434949) translate(-41.000000, -40.000000) " x="40" y="38" width="2" height="4"></rect>
                            <rect id="Rectangle-path" transform="translate(38.000000, 46.000000) rotate(-153.434949) translate(-38.000000, -46.000000) " x="37" y="44" width="2" height="4"></rect>
                            <rect id="Rectangle-path" transform="translate(36.000000, 51.000000) rotate(-153.434949) translate(-36.000000, -51.000000) " x="35" y="49" width="2" height="4"></rect>
                        </g>
                    </g>
                </g>
            </g>
        </g>
    </g>
</svg>