<?xml version="1.0" encoding="UTF-8"?>
<svg width="61px" height="56px" viewBox="0 0 61 56" version="1.1" xmlns="http://www.w3.org/2000/svg" xmlns:xlink="http://www.w3.org/1999/xlink">
    <!-- Generator: Sketch 46 (44423) - http://www.bohemiancoding.com/sketch -->
    <title>soil</title>
    <desc>Created with Sketch.</desc>
    <defs></defs>
    <g id="Page-1" stroke="none" stroke-width="1" fill="none" fill-rule="evenodd">
        <g id="Desktop-HD-Detail-A" transform="translate(-484.000000, -1769.000000)" fill-rule="nonzero" fill="#000000">
            <g id="wateroverlastscore" transform="translate(192.000000, 1444.000000)">
                <g id="graphics" transform="translate(0.000000, 147.000000)">
                    <g id="bodemtype" transform="translate(265.000000, 178.000000)">
                        <g id="soil" transform="translate(27.000000, 0.000000)">
                            <path d="M49.049123,6.15039845 C50.272459,4.87803198 51.6322109,3.99278477 53.1091973,3.51194313 L52.4928828,1.66748212 C50.1019688,2.44583644 47.9953242,4.06334114 46.2314473,6.47531052 C45.2876152,7.76555127 44.5372676,9.1515135 43.9463301,10.4732694 L43.9463301,0 L41.9786035,0 L41.9786035,10.4738574 C41.3995801,9.17985364 40.6673418,7.82446584 39.7496016,6.55786147 C37.979291,4.10520458 35.8542988,2.46006531 33.4333613,1.66771731 L32.8140684,3.51123757 C34.2922461,3.99501906 35.6506875,4.88061905 36.8712832,6.15016327 L24.1245469,6.15016327 C25.3478828,4.87779679 26.7076348,3.99254958 28.1846211,3.51170795 L27.5683066,1.66724694 C25.1773926,2.44560125 23.070748,4.06310595 21.3068711,6.47507533 C20.3630391,7.76531609 19.6126914,9.15127831 19.0217539,10.4730342 L19.0217539,0 L17.0540273,0 L17.0540273,10.4738574 C16.4750039,9.17985364 15.7427656,7.82446584 14.8250254,6.55786147 C13.0545957,4.10543977 10.9293652,2.46006531 8.50854688,1.66783491 L7.88937305,3.51135517 C9.36755078,3.99513665 10.7259922,4.88073664 11.9465879,6.15028086 L0,6.15028086 L0,56 L9.51063867,56 L9.51063867,54.0578184 L1.96772656,54.0578184 L1.96772656,45.0218998 C4.06984375,45.144903 5.24874023,45.6619636 6.48744531,46.2053652 C8.03222266,46.8830591 9.6297793,47.5838014 12.7902227,47.5838014 C15.950666,47.5838014 17.5482227,46.8830591 19.093,46.2053652 C20.5127988,45.5825877 21.8538457,44.9942652 24.5967012,44.9942652 C27.3408672,44.9942652 28.6814375,45.5830581 30.1008789,46.206306 C31.6430352,46.8835295 33.2377324,47.5838014 36.3900742,47.5838014 C39.5583809,47.5838014 41.1587969,46.8825887 42.7064336,46.2044245 C44.126709,45.5819997 45.4682324,44.9941476 48.2096582,44.9941476 C50.9523945,44.9941476 52.2935605,45.5823525 53.7133594,46.2052476 C55.088957,46.8087397 56.507207,47.4299886 59.0322734,47.5589891 L59.0322734,54.0577008 L12.1349492,54.0577008 L12.1349492,55.9998824 L61,55.9998824 L61,6.15039845 L49.049123,6.15039845 Z M59.0322734,45.6139853 C56.9301562,45.490982 55.7512598,44.9739214 54.5125547,44.4305198 C52.9676582,43.7528259 51.3701016,43.0520836 48.2096582,43.0520836 C45.051002,43.0520836 43.453207,43.752238 41.9080723,44.4293439 C40.4852949,45.052827 39.1413887,45.6416199 36.3900742,45.6416199 C33.6556777,45.6416199 32.3174902,45.0538853 30.9007891,44.4318134 C29.35625,43.7535315 27.7590508,43.0520836 24.5968203,43.0520836 C21.436377,43.0520836 19.8388203,43.7528259 18.294043,44.4305198 C16.8742441,45.0532974 15.5331973,45.6416199 12.7903418,45.6416199 C10.0476055,45.6416199 8.70643945,45.0534149 7.28664063,44.4305198 C5.91104297,43.8271453 4.49279297,43.2058965 1.96772656,43.0767783 L1.96772656,32.0739834 C4.06984375,32.1969867 5.24874023,32.7140472 6.48744531,33.2574488 C8.03222266,33.9351427 9.6297793,34.6358851 12.7902227,34.6358851 C15.950666,34.6358851 17.5482227,33.9351427 19.093,33.2574488 C20.5127988,32.6346713 21.8538457,32.0463488 24.5967012,32.0463488 C27.3408672,32.0463488 28.6814375,32.6351417 30.1008789,33.2583896 C31.6430352,33.9356131 33.2377324,34.6358851 36.3900742,34.6358851 C39.5583809,34.6358851 41.1587969,33.9346724 42.7064336,33.2565081 C44.126709,32.6340833 45.4682324,32.0462312 48.2096582,32.0462312 C50.9523945,32.0462312 52.2935605,32.6344361 53.7133594,33.2573312 C55.088957,33.8608234 56.507207,34.4820722 59.0322734,34.6110727 L59.0322734,45.6139853 L59.0322734,45.6139853 Z M59.0322734,11.9769432 L49.5215156,11.9769432 L49.5215156,13.9191248 L59.0322734,13.9191248 L59.0322734,20.3931418 L8.85488867,20.3931418 L8.85488867,22.3353233 L59.0322734,22.3353233 L59.0322734,32.6659513 C56.9301563,32.542948 55.7512598,32.0258875 54.5125547,31.4824859 C52.9677773,30.804792 51.3702207,30.1040496 48.2097773,30.1040496 C45.0511211,30.1040496 43.4533262,30.804204 41.9081914,31.4813099 C40.4854141,32.104793 39.1415078,32.6935859 36.3901934,32.6935859 C33.6557969,32.6935859 32.3176094,32.1058513 30.9009082,31.4837794 C29.3563691,30.8053799 27.7591699,30.1040496 24.5969395,30.1040496 C21.4364961,30.1040496 19.8389395,30.804792 18.2941621,31.4824859 C16.8743633,32.1052634 15.5333164,32.6935859 12.7904609,32.6935859 C10.0477246,32.6935859 8.70655859,32.105381 7.28675977,31.4824859 C5.91116211,30.8791113 4.49291211,30.2578625 1.9678457,30.1287444 L1.9678457,22.3352057 L6.23129297,22.3352057 L6.23129297,20.3930242 L1.96772656,20.3930242 L1.96772656,13.9190072 L11.4784844,13.9190072 L11.4784844,11.9768256 L1.96772656,11.9768256 L1.96772656,8.09258003 L13.5079258,8.09258003 C15.4184648,10.9041336 16.4045918,14.1761851 16.819916,15.8614239 L13.4462109,15.8614239 L13.4462109,17.8036055 L22.6289746,17.8036055 L22.6289746,15.8614239 L19.255627,15.8614239 C19.6759551,14.1573701 20.6794766,10.8306374 22.6289746,7.99709375 L22.6289746,8.09269763 L38.4326211,8.09269763 C40.3431602,10.9042512 41.3292871,14.1763027 41.7446113,15.8615415 L38.3710254,15.8615415 L38.3710254,17.8037231 L47.5537891,17.8037231 L47.5537891,15.8615415 L44.1804414,15.8615415 C44.6007695,14.1574877 45.604291,10.830755 47.5537891,7.99721134 L47.5537891,8.09281522 L59.0322734,8.09281522 L59.0322734,11.9769432 Z" id="Shape"></path>
                            <rect id="Rectangle-path" x="8" y="28" width="3" height="2"></rect>
                            <rect id="Rectangle-path" x="12" y="25" width="3" height="2"></rect>
                            <rect id="Rectangle-path" x="21" y="25" width="3" height="2"></rect>
                            <rect id="Rectangle-path" x="34" y="28" width="3" height="2"></rect>
                            <rect id="Rectangle-path" x="50" y="25" width="3" height="2"></rect>
                            <rect id="Rectangle-path" x="50" y="40" width="3" height="2"></rect>
                            <rect id="Rectangle-path" x="36" y="40" width="3" height="2"></rect>
                            <rect id="Rectangle-path" x="34" y="36" width="3" height="2"></rect>
                            <rect id="Rectangle-path" x="20" y="36" width="3" height="2"></rect>
                            <rect id="Rectangle-path" x="6" y="40" width="3" height="2"></rect>
                            <rect id="Rectangle-path" x="13" y="40" width="3" height="2"></rect>
                            <rect id="Rectangle-path" x="5" y="50" width="3" height="2"></rect>
                            <rect id="Rectangle-path" x="20" y="47" width="3" height="2"></rect>
                            <rect id="Rectangle-path" x="25" y="50" width="3" height="2"></rect>
                            <rect id="Rectangle-path" x="54" y="50" width="3" height="2"></rect>
                            <rect id="Rectangle-path" x="43" y="50" width="3" height="2"></rect>
                            <rect id="Rectangle-path" x="25" y="12" width="2" height="2"></rect>
                            <rect id="Rectangle-path" x="26" y="14" width="2" height="2"></rect>
                            <rect id="Rectangle-path" x="35" y="12" width="2" height="2"></rect>
                            <rect id="Rectangle-path" x="6" y="15" width="2" height="2"></rect>
                            <rect id="Rectangle-path" x="52" y="15" width="2" height="2"></rect>
                        </g>
                    </g>
                </g>
            </g>
        </g>
    </g>
</svg>