<?xml version="1.0" encoding="UTF-8"?>
<svg width="70px" height="61px" viewBox="0 0 70 61" version="1.1" xmlns="http://www.w3.org/2000/svg" xmlns:xlink="http://www.w3.org/1999/xlink">
    <!-- Generator: Sketch 46 (44423) - http://www.bohemiancoding.com/sketch -->
    <title>waste-pipe</title>
    <desc>Created with Sketch.</desc>
    <defs></defs>
    <g id="Page-1" stroke="none" stroke-width="1" fill="none" fill-rule="evenodd">
        <g id="Desktop-HD-Detail-A" transform="translate(-224.000000, -1598.000000)" fill-rule="nonzero" fill="#000000">
            <g id="wateroverlastscore" transform="translate(192.000000, 1444.000000)">
                <g id="graphics" transform="translate(0.000000, 147.000000)">
                    <g id="riolering" transform="translate(8.000000, 7.000000)">
                        <g id="waste-pipe" transform="translate(24.000000, 0.000000)">
                            <path d="M27.8117526,61 C27.4201287,61 27.1022891,60.67877 27.1022891,60.2829687 C27.1022891,59.8871675 27.4201287,59.5659375 27.8117526,59.5659375 C37.8375361,59.5659375 44.823978,56.9010908 44.823978,54.5094331 C44.823978,54.1136318 45.1418177,53.7924018 45.5334415,53.7924018 C45.9250654,53.7924018 46.242905,54.1136318 46.242905,54.5094331 C46.2432598,58.7252183 36.746736,61 27.8117526,61 Z M66.1919546,57.0900286 C66.1288124,57.0900286 66.0646059,57.0814242 66.0007542,57.0634984 C63.4583917,56.3464672 60.7503695,55.9011907 58.3605417,55.5082576 C53.5702441,54.7205988 50.1091264,54.1516345 49.6749347,51.9080437 C49.4191731,50.5861966 50.3510535,49.3292408 51.2520721,48.1131558 C52.0151001,47.0838574 52.8040235,46.019066 52.6004075,45.2446722 C52.4631263,44.7226735 51.8568897,44.2236197 50.7990797,43.7614931 C45.9250654,41.6315517 34.6367915,42.1790051 32.1043615,42.3335253 L32.4551912,46.9160721 C32.4853434,47.3111563 32.1930445,47.6556898 31.8024848,47.6861636 C31.414763,47.7180715 31.0706732,47.4215791 31.040521,47.0264949 L29.4084002,25.7055705 L20.838081,25.7055705 L19.2123454,47.0261364 C19.1821932,47.4212206 18.8430697,47.7198641 18.4503816,47.6861636 C18.059822,47.6556898 17.767523,47.3107978 17.7976752,46.9164306 L18.0903289,43.0795963 C17.1126882,43.0025155 14.92825,42.7060231 14.1474854,41.5792084 C13.8204228,41.1070434 13.7682772,40.6606914 13.7299662,40.3351592 C13.683851,39.9418676 13.6505063,39.6579232 11.6154102,39.3922631 C8.0585149,38.9283439 0.827662846,39.3922631 0.755297569,39.3969238 C0.364737908,39.424888 0.0266785476,39.1226594 0.00149259309,38.7275751 C-0.0236933614,38.3321324 0.272862384,37.991184 0.663776776,37.9657294 C0.96600823,37.9460111 8.10604896,37.4885451 11.7970329,37.9703901 C14.4610683,38.3181503 14.9974227,38.9552326 15.1393154,40.1666569 C15.1701771,40.4305244 15.1935894,40.5886298 15.3099414,40.7567736 C15.6543859,41.2536763 17.126168,41.5627167 18.1995863,41.6494775 L19.4156067,25.705929 L17.50041,25.705929 C17.1087861,25.705929 16.7909465,25.384699 16.7909465,24.9888978 C16.7909465,24.5930965 17.1087861,24.2718665 17.50041,24.2718665 L18.6827309,24.2718665 L18.6827309,13.2467939 C18.6827309,6.77845497 23.8891289,1.51616259 30.2888444,1.51616259 L40.2028875,1.51616259 L40.2028875,0.717031256 C40.2028875,0.321230002 40.5207271,0 40.912351,0 C41.3039748,0 41.6218145,0.321230002 41.6218145,0.717031256 L41.6218145,1.51616259 L58.1757265,1.51616259 L58.1757265,0.717031256 C58.1757265,0.321230002 58.4935661,0 58.88519,0 C59.2768138,0 59.5946535,0.321230002 59.5946535,0.717031256 L59.5946535,1.51616259 L69.2905365,1.51616259 C69.6821603,1.51616259 70,1.83739259 70,2.23319385 C70,2.6289951 69.6821603,2.9502251 69.2905365,2.9502251 L59.5946535,2.9502251 L59.5946535,12.5297627 L69.2905365,12.5297627 C69.6821603,12.5297627 70,12.8509927 70,13.2467939 C70,13.6425952 69.6821603,13.9638252 69.2905365,13.9638252 L59.5946535,13.9638252 L59.5946535,14.3571168 C59.5946535,14.7529181 59.2768138,15.0741481 58.88519,15.0741481 C58.4935661,15.0741481 58.1757265,14.7529181 58.1757265,14.3571168 L58.1757265,13.9638252 L41.6214597,13.9638252 L41.6214597,14.3571168 C41.6214597,14.7529181 41.3036201,15.0741481 40.9119962,15.0741481 C40.5203724,15.0741481 40.2025327,14.7529181 40.2025327,14.3571168 L40.2025327,13.9638252 L36.1099925,13.9638252 C33.5381873,13.9638252 31.4456247,16.0783504 31.4456247,18.6775887 L31.4456247,24.2718665 L32.1621828,24.2718665 C32.5538067,24.2718665 32.8716463,24.5930965 32.8716463,24.9888978 C32.8716463,25.384699 32.5538067,25.705929 32.1621828,25.705929 L30.8319387,25.705929 L31.9951042,40.9023309 C34.5871291,40.7370552 46.1230057,40.1555429 51.3627484,42.4453822 C52.8604259,43.0996732 53.7139105,43.8952194 53.9721552,44.8764767 C54.3527824,46.3227287 53.3538577,47.6700304 52.3882779,48.9732348 C51.672784,49.9383588 50.9331683,50.9364663 51.0679663,51.6330622 C51.3123765,52.8964713 55.0115192,53.5048723 58.588989,54.0928379 C61.0149994,54.4915073 63.7645252,54.9435955 66.3828003,55.6821377 C66.7602349,55.7886168 66.980878,56.1840596 66.8755227,56.5658787 C66.7875492,56.882448 66.5023449,57.0900286 66.1919546,57.0900286 Z M20.1013032,24.2718665 L30.0266977,24.2718665 L30.0266977,18.6775887 C30.0266977,15.2874649 32.755649,12.5297627 36.1099925,12.5297627 L40.2025327,12.5297627 L40.2025327,2.9502251 L30.2884897,2.9502251 C24.6713124,2.9502251 20.1013032,7.56934045 20.1013032,13.2467939 L20.1013032,24.2718665 Z M41.6214597,12.5297627 L58.1757265,12.5297627 L58.1757265,2.9502251 L41.6214597,2.9502251 L41.6214597,12.5297627 Z M25.2449136,57.0036263 C16.8544435,57.0036263 7.93684191,54.8571932 7.93684191,50.8791038 C7.93684191,50.4833026 8.25468156,50.1620726 8.64630542,50.1620726 C9.03792928,50.1620726 9.35576893,50.4833026 9.35576893,50.8791038 C9.35576893,53.0975985 15.8814143,55.5695638 25.2449136,55.5695638 C25.6365375,55.5695638 25.9543771,55.8907938 25.9543771,56.286595 C25.9543771,56.6823963 25.6365375,57.0036263 25.2449136,57.0036263 Z M25.2449136,53.567971 C18.8767692,53.567971 12.430229,51.9668402 12.430229,48.9072679 C12.430229,48.5114666 12.7480687,48.1902366 13.1396925,48.1902366 C13.5313164,48.1902366 13.849156,48.5114666 13.849156,48.9072679 C13.849156,50.2230202 18.2886239,52.1339085 25.2449136,52.1339085 C32.2012033,52.1339085 36.6406712,50.2230202 36.6406712,48.9072679 C36.6406712,48.5114666 36.9585108,48.1902366 37.3501347,48.1902366 C37.7417586,48.1902366 38.0595982,48.5114666 38.0595982,48.9072679 C38.0595982,51.9671988 31.6127033,53.567971 25.2449136,53.567971 Z M27.040211,44.3946317 C26.6585197,44.3946317 26.3435179,44.0884593 26.331457,43.6998284 L26.0728575,35.386568 C26.0604419,34.9907668 26.3679943,34.6602153 26.7596182,34.6473088 C27.1551441,34.6240053 27.4786595,34.9455938 27.4910751,35.3417536 L27.7496745,43.6550139 C27.7620901,44.0508152 27.4545377,44.3813666 27.0629139,44.3942732 C27.0554645,44.3946317 27.0476604,44.3946317 27.040211,44.3946317 Z M22.4890026,37.9635783 C22.4744586,37.9635783 22.4599146,37.9632198 22.4453706,37.9621443 C22.0541015,37.9384822 21.7564816,37.5982509 21.7798939,37.2031667 L22.3488836,27.6874449 C22.3726506,27.2923607 22.7089363,26.9912076 23.0998507,27.0152281 C23.4911198,27.0388901 23.7887398,27.3791215 23.7653275,27.7742057 L23.1963377,37.2899275 C23.1736349,37.6703126 22.8611162,37.9635783 22.4890026,37.9635783 Z M15.6072066,36.0813713 C15.4947566,36.0813713 15.3808878,36.0544826 15.274823,35.9978372 C14.9286048,35.8117675 14.797354,35.3779636 14.9811051,35.0280524 L15.8604851,33.3548599 C16.0442361,33.0049487 16.4731068,32.8722979 16.8200345,33.058009 C17.1658979,33.2440786 17.2975034,33.6778825 17.1137524,34.0277938 L16.2343724,35.7009862 C16.1070237,35.9433428 15.8611945,36.0813713 15.6072066,36.0813713 Z M34.5420781,33.7287917 C34.3242728,33.7287917 34.1096601,33.6280489 33.9706053,33.4373185 L33.246243,32.4438717 C33.0138937,32.1247928 33.080938,31.6759313 33.3962946,31.4411035 C33.7120058,31.2069928 34.15613,31.2743938 34.3881246,31.5931141 L35.1124868,32.586561 C35.3448361,32.9056399 35.2777918,33.3545014 34.9624353,33.5893292 C34.835796,33.6832603 34.6882276,33.7287917 34.5420781,33.7287917 Z M12.0907507,31.1668391 C11.8417291,31.1668391 11.6001567,31.0341883 11.4703249,30.799002 C11.2794792,30.4530345 11.4025711,30.0163624 11.7445326,29.823481 L15.2624074,27.8419651 C15.605433,27.6490837 16.0371415,27.7738472 16.2276325,28.1190977 C16.4184781,28.4650653 16.2953862,28.9017373 15.9534248,29.0946187 L12.43555,31.0761346 C12.3262926,31.1377993 12.2074575,31.1668391 12.0907507,31.1668391 Z M33.3512436,28.871622 C33.2100604,28.871622 33.0674582,28.8293172 32.9433021,28.7407638 L31.9085496,28.0032972 C31.5885816,27.7749227 31.5119595,27.3274952 31.7379236,27.0041141 C31.9631783,26.6803745 32.4055288,26.6022181 32.726561,26.8313096 L33.7613136,27.5687762 C34.0812816,27.7971507 34.1579037,28.2445782 33.9319395,28.5679593 C33.7935941,28.7658599 33.5740152,28.871622 33.3512436,28.871622 Z M38.9911238,28.8164106 C38.9347214,28.8164106 38.8779644,28.8095988 38.8208525,28.7952582 L35.6651589,28.0086749 C35.2848864,27.9140268 35.0521824,27.5253958 35.1461863,27.1410671 C35.2401902,26.7567383 35.6243647,26.5219106 36.0049919,26.6165587 L39.1606856,27.403142 C39.540958,27.4977901 39.773662,27.8864211 39.6796581,28.2707498 C39.5998435,28.5980746 39.3100276,28.8164106 38.9911238,28.8164106 Z M13.8484466,26.6183513 C13.5189008,26.6183513 13.2234092,26.3853161 13.1542365,26.0458018 C13.0751314,25.6578879 13.3223794,25.2785784 13.7058444,25.1989879 L15.4646044,24.8329435 C15.8494884,24.7512019 16.2237304,25.0025214 16.3028356,25.3907938 C16.3819408,25.7787077 16.1346927,26.1580172 15.7512277,26.2376077 L13.9924677,26.6036522 C13.9438694,26.6136906 13.8959806,26.6183513 13.8484466,26.6183513 Z" id="Shape"></path>
                        </g>
                    </g>
                </g>
            </g>
        </g>
    </g>
</svg>